<svg width="15" height="46" fill="none" xmlns="http://www.w3.org/2000/svg"><path d="M7.128 2.584a8.705 8.705 0 0 1-1.984.96c-.288.79-.72 1.936-1.296 3.44a138.908 138.908 0 0 1-1.072 2.8c-.096.213-.23.379-.4.496a.96.96 0 0 1-.512.16c-.213 0-.363-.107-.448-.32-.075-.213-.112-.507-.112-.88 0-.15.016-.261.048-.336.032-.085.107-.208.224-.368.032-.053.075-.117.128-.192.064-.085.139-.197.224-.336.437-.704.827-1.387 1.168-2.048.341-.661.64-1.36.896-2.096-.064.01-.15.016-.256.016-.544 0-.97-.144-1.28-.432a3.168 3.168 0 0 1-.688-.928.645.645 0 0 1-.096-.288c0-.053.021-.08.064-.08s.117.053.224.16c.15.128.347.235.592.32.256.075.517.112.784.112.181 0 .512-.048.992-.144.043-.299.064-.517.064-.656 0-.437-.112-.763-.336-.976a1.843 1.843 0 0 0-.352-.24C3.565.653 3.496.595 3.496.552c0-.053.048-.096.144-.128A.96.96 0 0 1 4.024.36c.213 0 .432.037.656.112.512.17.816.437.912.8a.26.26 0 0 1 .128 0c.053 0 .112-.005.176-.016.17 0 .336-.005.496-.016.16-.021.277-.032.352-.032h.224c.128 0 .235.021.32.064a.484.484 0 0 1 .24.192.468.468 0 0 1 .096.288c0 .15-.053.299-.16.448-.096.15-.208.277-.336.384Zm-1.504-.976c0 .16-.027.363-.08.608.032-.01.112-.048.24-.112.203-.117.304-.219.304-.304 0-.064-.064-.128-.192-.192l-.272-.128v.128Zm4.368 3.12c-.395 0-.71.165-.944.496-.224.32-.336.773-.336 1.36 0 .576.096 1.43.288 2.56.064.384.107.667.128.848 1.024.256 1.77.565 2.24.928.192.128.336.277.432.448.096.16.144.315.144.464 0 .17-.059.32-.176.448a.5.5 0 0 1-.4.192c-.15 0-.32-.048-.512-.144a6.217 6.217 0 0 1-.688-.416 8.23 8.23 0 0 0-.896-.496v.128c0 .63-.245 1.13-.736 1.504-.48.373-1.061.56-1.744.56-.395 0-.779-.075-1.152-.224a2.16 2.16 0 0 1-.896-.624 1.486 1.486 0 0 1-.352-.992c0-.64.304-1.13.912-1.472.608-.352 1.333-.528 2.176-.528.16 0 .288.005.384.016a42.534 42.534 0 0 1 0-2.32c.032-.65.123-1.179.272-1.584.15-.405.4-.741.752-1.008.352-.277.859-.523 1.52-.736.17-.053.256-.144.256-.272 0-.139-.07-.283-.208-.432a7.197 7.197 0 0 0-.576-.576c-.107-.053-.16-.101-.16-.144 0-.043.059-.064.176-.064.139 0 .325.032.56.096a3.563 3.563 0 0 1 1.44.736c.448.352.672.73.672 1.136 0 .256-.08.464-.24.624a.786.786 0 0 1-.576.24.998.998 0 0 1-.416-.08 6.537 6.537 0 0 1-.464-.32 2.692 2.692 0 0 0-.48-.256.883.883 0 0 0-.4-.096Zm-3.52 7.84c.555 0 .923-.139 1.104-.416.181-.277.277-.677.288-1.2a6.618 6.618 0 0 0-1.184-.128c-.459 0-.848.064-1.168.192-.31.128-.464.341-.464.64 0 .288.139.512.416.672.288.16.624.24 1.008.24Zm7.296 29.264c.213.203.32.421.32.656 0 .17-.053.32-.16.448a.516.516 0 0 1-.416.192c-.299 0-.64-.139-1.024-.416l-.384-.288-1.376-1.04c-.15.256-.293.49-.432.704-.693 1.045-1.52 1.813-2.48 2.304a6.68 6.68 0 0 1-3.008.752c-.15 0-.224-.021-.224-.064 0-.032.032-.059.096-.08.075-.032.16-.059.256-.08.821-.203 1.61-.587 2.368-1.152.768-.565 1.413-1.387 1.936-2.464.075-.15.176-.373.304-.672a8.518 8.518 0 0 0-1.888-.784 7.591 7.591 0 0 0-2.08-.304 66.77 66.77 0 0 0-1.024 2.224c-.33.736-.667 1.301-1.008 1.696-.341.384-.757.576-1.248.576-.384 0-.704-.139-.96-.416-.256-.288-.384-.656-.384-1.104 0-.683.272-1.35.816-2a4.38 4.38 0 0 1 1.328-1.024 5.641 5.641 0 0 1 1.68-.544 133.29 133.29 0 0 1 1.776-3.008 87.298 87.298 0 0 1 .448-.64c.224-.31.39-.55.496-.72.107-.181.16-.33.16-.448a.245.245 0 0 0-.112-.208c-.064-.064-.128-.096-.192-.096-.117 0-.267.07-.448.208-.16.117-.432.379-.816.784l-.432.448c-.235.213-.448.32-.64.32-.245 0-.544-.139-.896-.416-.352-.288-.597-.57-.736-.848a.648.648 0 0 1-.08-.32c0-.096.037-.144.112-.144.064 0 .133.027.208.08a1.623 1.623 0 0 0 .816.224c.181 0 .39-.043.624-.128.235-.085.523-.213.864-.384.267-.139.55-.261.848-.368.043-.021.15-.064.32-.128.181-.075.347-.112.496-.112.256 0 .57.123.944.368.523.363.784.688.784.976 0 .267-.181.55-.544.848-1.067.917-2.01 2.123-2.832 3.616 1.184.021 2.496.31 3.936.864.16-.512.24-.96.24-1.344 0-.661-.224-1.184-.672-1.568-.075-.053-.112-.101-.112-.144 0-.043.037-.064.112-.064.064 0 .165.021.304.064a4.228 4.228 0 0 1 1.216.496c.181.096.32.272.416.528.096.245.144.55.144.912 0 .117-.01.304-.032.56.181.363.4.725.656 1.088.256.352.512.65.768.896.117.117.245.219.384.304.181.128.336.256.464.384ZM11.4 39.624a7.916 7.916 0 0 1-.192.672l.928.48a41.33 41.33 0 0 1-.736-1.152Zm-7.024.016a4.373 4.373 0 0 0-1.52.544 2.573 2.573 0 0 0-1.008 1.072 1.458 1.458 0 0 0-.208.72c0 .181.037.325.112.432.085.096.208.144.368.144.192 0 .379-.075.56-.224.181-.15.352-.352.512-.608l1.184-2.08Z" fill="#000"/></svg>