<svg width="15" height="110" fill="none" xmlns="http://www.w3.org/2000/svg"><path d="M7.128 2.584a8.705 8.705 0 0 1-1.984.96c-.288.79-.72 1.936-1.296 3.44a138.908 138.908 0 0 1-1.072 2.8c-.096.213-.23.379-.4.496a.96.96 0 0 1-.512.16c-.213 0-.363-.107-.448-.32-.075-.213-.112-.507-.112-.88 0-.15.016-.261.048-.336.032-.085.107-.208.224-.368.032-.053.075-.117.128-.192.064-.085.139-.197.224-.336.437-.704.827-1.387 1.168-2.048.341-.661.64-1.36.896-2.096-.064.01-.15.016-.256.016-.544 0-.97-.144-1.28-.432a3.168 3.168 0 0 1-.688-.928.645.645 0 0 1-.096-.288c0-.053.021-.08.064-.08s.117.053.224.16c.15.128.347.235.592.32.256.075.517.112.784.112.181 0 .512-.048.992-.144.043-.299.064-.517.064-.656 0-.437-.112-.763-.336-.976a1.843 1.843 0 0 0-.352-.24C3.565.653 3.496.595 3.496.552c0-.053.048-.096.144-.128A.96.96 0 0 1 4.024.36c.213 0 .432.037.656.112.512.17.816.437.912.8a.26.26 0 0 1 .128 0c.053 0 .112-.005.176-.016.17 0 .336-.005.496-.016.16-.021.277-.032.352-.032h.224c.128 0 .235.021.32.064a.484.484 0 0 1 .24.192.468.468 0 0 1 .096.288c0 .15-.053.299-.16.448-.096.15-.208.277-.336.384Zm-1.504-.976c0 .16-.027.363-.08.608.032-.01.112-.048.24-.112.203-.117.304-.219.304-.304 0-.064-.064-.128-.192-.192l-.272-.128v.128Zm4.368 3.12c-.395 0-.71.165-.944.496-.224.32-.336.773-.336 1.36 0 .576.096 1.43.288 2.56.064.384.107.667.128.848 1.024.256 1.77.565 2.24.928.192.128.336.277.432.448.096.16.144.315.144.464 0 .17-.059.32-.176.448a.5.5 0 0 1-.4.192c-.15 0-.32-.048-.512-.144a6.217 6.217 0 0 1-.688-.416 8.23 8.23 0 0 0-.896-.496v.128c0 .63-.245 1.13-.736 1.504-.48.373-1.061.56-1.744.56-.395 0-.779-.075-1.152-.224a2.16 2.16 0 0 1-.896-.624 1.486 1.486 0 0 1-.352-.992c0-.64.304-1.13.912-1.472.608-.352 1.333-.528 2.176-.528.16 0 .288.005.384.016a42.534 42.534 0 0 1 0-2.32c.032-.65.123-1.179.272-1.584.15-.405.4-.741.752-1.008.352-.277.859-.523 1.52-.736.17-.053.256-.144.256-.272 0-.139-.07-.283-.208-.432a7.197 7.197 0 0 0-.576-.576c-.107-.053-.16-.101-.16-.144 0-.043.059-.064.176-.064.139 0 .325.032.56.096a3.563 3.563 0 0 1 1.44.736c.448.352.672.73.672 1.136 0 .256-.08.464-.24.624a.786.786 0 0 1-.576.24.998.998 0 0 1-.416-.08 6.537 6.537 0 0 1-.464-.32 2.692 2.692 0 0 0-.48-.256.883.883 0 0 0-.4-.096Zm-3.52 7.84c.555 0 .923-.139 1.104-.416.181-.277.277-.677.288-1.2a6.618 6.618 0 0 0-1.184-.128c-.459 0-.848.064-1.168.192-.31.128-.464.341-.464.64 0 .288.139.512.416.672.288.16.624.24 1.008.24Zm.736 23.52c.693 0 1.195.224 1.504.672.31.448.464 1.104.464 1.968 0 .47-.064 1.067-.192 1.792a11.465 11.465 0 0 1-.592 2.128c-.256.693-.57 1.232-.944 1.616a2.764 2.764 0 0 1-.608.496c-.192.107-.363.16-.512.16-.17 0-.33-.07-.48-.208a1.365 1.365 0 0 1-.32-.544 5.088 5.088 0 0 0-.784-1.504.836.836 0 0 0-.096-.144c-.043-.064-.064-.112-.064-.144 0-.021.021-.032.064-.032.053 0 .17.059.352.176.021.01.144.08.368.208.203.117.368.208.496.272.128.053.24.08.336.08.352 0 .661-.293.928-.88.277-.597.49-1.285.64-2.064.15-.79.224-1.424.224-1.904 0-.49-.07-.853-.208-1.088-.128-.235-.347-.352-.656-.352-.395 0-1.003.187-1.824.56-.501 2.272-1.296 4.315-2.384 6.128-.16.288-.341.512-.544.672-.203.16-.395.24-.576.24a.536.536 0 0 1-.416-.176.749.749 0 0 1-.16-.496c0-.373.181-.795.544-1.264.64-.843 1.136-1.627 1.488-2.352.363-.725.64-1.435.832-2.128-.437.245-.81.437-1.12.576-.299.128-.555.192-.768.192-.213 0-.443-.08-.688-.24a2.294 2.294 0 0 1-.624-.656 1.569 1.569 0 0 1-.24-.816c0-.128.032-.192.096-.192.032 0 .085.027.16.08l.192.112c.288.15.635.224 1.04.224a7.487 7.487 0 0 0 2.24-.432c.117-.683.176-1.227.176-1.632 0-.576-.107-.997-.32-1.264a2.758 2.758 0 0 0-.432-.432c-.16-.128-.24-.213-.24-.256 0-.064.059-.117.176-.16.117-.053.277-.08.48-.08.192 0 .395.027.608.08.224.053.405.117.544.192.384.192.576.49.576.896 0 .203-.064.539-.192 1.008-.075.288-.117.47-.128.544l-.128.688c.715-.213 1.285-.32 1.712-.32Zm3.184.048c.928.01 1.69.17 2.288.48.597.31 1.03.677 1.296 1.104.277.416.416.81.416 1.184a1.429 1.429 0 0 1-.672 1.232.995.995 0 0 1-.544.176c-.181 0-.395-.101-.64-.304a1.865 1.865 0 0 0-.784-.384 6.275 6.275 0 0 0-1.024-.192c-.15-.021-.224-.053-.224-.096 0-.043.096-.075.288-.096.224-.043.576-.09 1.056-.144.352-.064.581-.128.688-.192.107-.064.16-.176.16-.336 0-.501-.24-.955-.72-1.36a4.564 4.564 0 0 0-1.632-.912c-.096-.032-.144-.064-.144-.096 0-.043.064-.064.192-.064Zm2.16 38.832c.213.17.373.352.48.544.107.181.16.363.16.544a.765.765 0 0 1-.16.48.533.533 0 0 1-.432.192.891.891 0 0 1-.544-.192 4.633 4.633 0 0 1-.496-.432c-.15-.16-.25-.267-.304-.32a5.697 5.697 0 0 0-.56-.448l-.256-.176c-.128 1.355-.896 2.032-2.304 2.032-.779 0-1.413-.176-1.904-.528-.48-.352-.72-.805-.72-1.36 0-.587.293-1.024.88-1.312a4.508 4.508 0 0 1 1.984-.432c.16 0 .4.01.72.032l-.064-3.824-.464.048a2.95 2.95 0 0 1-.544-.048c-.501-.075-.907-.24-1.216-.496-.299-.267-.56-.645-.784-1.136a.458.458 0 0 1-.048-.208c0-.064.021-.096.064-.096s.133.059.272.176c.192.17.427.32.704.448.277.128.565.192.864.192.245 0 .624-.053 1.136-.16A72.348 72.348 0 0 1 9 66.84a1.543 1.543 0 0 0-.16-.624 1.73 1.73 0 0 0-.288-.464c-.032-.203-.107-.347-.224-.432a1.985 1.985 0 0 0-.192-.144c-.021-.053.021-.112.128-.176a.789.789 0 0 1 .384-.096c.192 0 .416.053.672.16.267.096.47.213.608.352.31.139.448.41.416.816l-.08.544c.416.32.757.512 1.024.576.085.021.245.048.48.08.192.021.33.053.416.096.096.032.16.112.192.24a.55.55 0 0 1 .032.224c0 .341-.267.645-.8.912-.427.213-.944.416-1.552.608v.352c0 .587.021 1.125.064 1.616.043.48.107 1.045.192 1.696.043.33.07.555.08.672a5.425 5.425 0 0 1 2.16 1.12Zm-8.016-5.776c.032 0 .048.021.048.064 0 .01-.016.08-.048.208-.31.853-.613 1.813-.912 2.88-.299 1.056-.448 1.797-.448 2.224 0 .203.059.587.176 1.152.085.405.128.661.128.768a.751.751 0 0 1-.144.464.427.427 0 0 1-.368.176c-.373 0-.725-.261-1.056-.784-.224-.33-.4-.72-.528-1.168-.117-.459-.176-1.056-.176-1.792 0-1.248.192-2.667.576-4.256l.176-.704c.096-.373.165-.661.208-.864.043-.203.064-.427.064-.672 0-.277-.037-.533-.112-.768a3.034 3.034 0 0 0-.336-.752.788.788 0 0 0-.048-.08.246.246 0 0 1-.032-.096c0-.032.01-.059.032-.08a.172.172 0 0 1 .096-.032c.075 0 .187.043.336.128.405.299.757.624 1.056.976a1.75 1.75 0 0 1 .336 1.84c-.085.203-.213.475-.384.816-.15.267-.267.496-.352.688a7.181 7.181 0 0 0-.64 2.944c0 .224.016.437.048.64.043.203.107.304.192.304.096 0 .213-.15.352-.448.15-.299.368-.79.656-1.472l.368-.88c.192-.47.384-.896.576-1.28.053-.096.107-.144.16-.144Zm5.648-1.52c-.043.32-.064.496-.064.528.501-.17.752-.32.752-.448 0-.096-.213-.32-.64-.672l-.048.592Zm-2.4 8.544c.437 0 .768-.123.992-.368.224-.245.336-.667.336-1.264a4.522 4.522 0 0 0-1.216-.16 3.64 3.64 0 0 0-1.184.176c-.33.117-.496.325-.496.624 0 .32.17.565.512.736.352.17.704.256 1.056.256ZM4.536 109.64c-.128 0-.192-.037-.192-.112 0-.053.027-.091.08-.112.064-.021.155-.037.272-.048 1.664-.267 2.917-.741 3.76-1.424.843-.683 1.264-1.536 1.264-2.56 0-.555-.117-1.003-.352-1.344-.235-.352-.581-.528-1.04-.528-.512 0-.95.197-1.312.592-.352.395-.741.992-1.168 1.792a1.26 1.26 0 0 1-.448.528c-.192.139-.373.208-.544.208-.512 0-.923-.155-1.232-.464-.31-.309-.464-.757-.464-1.344 0-.459.064-1.456.192-2.992.064-.768.096-1.168.096-1.2 0-.149-.016-.299-.048-.448a2.978 2.978 0 0 1-.032-.352c0-.235.08-.443.24-.624.16-.181.416-.39.768-.624.235-.17.592-.357 1.072-.56.277-.128.475-.224.592-.288.117-.075.176-.155.176-.24 0-.117-.101-.267-.304-.448a4.05 4.05 0 0 0-.736-.512l-.128-.064c-.064-.043-.096-.08-.096-.112 0-.064.17-.096.512-.096.512 0 .96.096 1.344.288.384.192.725.523 1.024.992.128.181.192.379.192.592 0 .224-.08.427-.24.608-.15.17-.32.256-.512.256-.17 0-.363-.085-.576-.256a3.176 3.176 0 0 0-.448-.24 1.069 1.069 0 0 0-.48-.096c-.352 0-.715.117-1.088.352a.735.735 0 0 0-.256.256.54.54 0 0 0-.096.304c0 .085.053.235.16.448.139.277.208.512.208.704 0 .096-.043.432-.128 1.008-.139.928-.208 1.611-.208 2.048 0 .288.032.571.096.848.075.277.176.416.304.416.075 0 .176-.037.304-.112.139-.085.325-.208.56-.368a10.4 10.4 0 0 1 1.488-.912c.459-.235.95-.352 1.472-.352.47 0 .917.123 1.344.368.437.245.784.576 1.04.992.267.416.4.88.4 1.392a2.91 2.91 0 0 1-.432 1.52c-.277.48-.89.933-1.84 1.36-.95.427-2.33.736-4.144.928l-.416.032Z" fill="#000"/></svg>