<svg width="165" height="187" fill="none" xmlns="http://www.w3.org/2000/svg"><path d="M140 39c.667-.667 1.6-1.733 2.8-3.2 1.2-1.467 2.2-2.2 3-2.2.8 0 2.8 1.133 6 3.4s6.2 4.667 9 7.2c2.8 2.533 4.2 4.267 4.2 5.2-1.467 2-4.133 3.4-8 4.2V76c.4 18.933.867 33.533 1.4 43.8-.8 1.2-3.133 2.533-7 4-3.867 1.333-7.333 2-10.4 2-2.667 0-4-1.333-4-4 0-.267.267-2.6.8-7v-5.6H89.2v23.6c.267 16.267.8 31.6 1.6 46-.933 1.733-3.2 3.533-6.8 5.4-3.467 1.867-6.933 2.8-10.4 2.8-1.733 0-3.133-.4-4.2-1.2-.933-.8-1.4-1.733-1.4-2.8.533-7.2.933-14.267 1.2-21.2.4-6.933.667-15.8.8-26.6v-26H21.4v4.4c.133 1.733.2 3.267.2 4.6.133 1.333.267 2.333.4 3-.267 1.467-2.2 3.067-5.8 4.8-3.467 1.733-7 2.6-10.6 2.6-1.467 0-2.6-.4-3.4-1.2-.8-.8-1.2-1.733-1.2-2.8.8-10.4 1.333-20.867 1.6-31.4V75.4c0-16.8-.867-30.467-2.6-41l23.2 10H70V41c0-16.8-.867-30.467-2.6-41 10.267 2.4 17.333 4.333 21.2 5.8 3.867 1.333 5.8 2.533 5.8 3.6 0 .533-.533 1.133-1.6 1.8l-3.6 2.4v30.8h46.6L140 39ZM21.4 50.2v53.2H70V50.2H21.4Zm67.8 0v53.2h48.6V50.2H89.2Z" fill="#000"/></svg>