<svg width="179" height="186" fill="none" xmlns="http://www.w3.org/2000/svg"><path d="M158.8.2c.8 0 2.867 1.267 6.2 3.8a95.292 95.292 0 0 1 9.6 8c2.933 2.667 4.4 4.467 4.4 5.4-.533 2.133-2.333 3.2-5.4 3.2h-71c10.933 1.867 16.4 3.6 16.4 5.2 0 .533-.6 1.067-1.8 1.6l-3.4 1.6-3.8 6c-1.467 2.533-3.933 6.333-7.4 11.4h34.6l4-5.6 1.8-2.4c.933-1.2 1.667-2.067 2.2-2.6.533-.533 1.067-.8 1.6-.8.8 0 2.733 1.2 5.8 3.6a76.167 76.167 0 0 1 8.6 7.4c2.667 2.667 4 4.467 4 5.4-.667.8-1.733 1.6-3.2 2.4-1.467.8-3.133 1.4-5 1.8v19.2c.4 16 .867 28.333 1.4 37-.8 1.333-3 2.8-6.6 4.4-3.6 1.467-6.867 2.2-9.8 2.2h-2.8v-8h-23.8v51c0 4.933-.6 8.933-1.8 12-1.2 3.2-3.667 5.8-7.4 7.8-3.6 2-9 3.333-16.2 4-.267-6.133-1.6-10.4-4-12.8-3.2-3.2-8.933-5.333-17.2-6.4v-2.8c13.467.933 21.533 1.4 24.2 1.4 1.6 0 2.733-.267 3.4-.8.667-.667 1-1.6 1-2.8v-50.6h-24v5.6c0 .667-.933 1.533-2.8 2.6-1.733 1.067-3.8 1.933-6.2 2.6l12.6 7.4c6.667 2.8 10 4.8 10 6 0 .667-.733 1.133-2.2 1.4l-3.6.6c-6 8.133-13.6 15.933-22.8 23.4-9.2 7.333-19.133 13.267-29.8 17.8l-1.8-2.4c6.267-5.2 12.533-11.533 18.8-19 4.133-5.2 7.867-11 11.2-17.4 3.333-6.4 5.6-12.267 6.8-17.6-1.6.4-3.333.6-5.2.6-1.333 0-2.4-.4-3.2-1.2-.667-.8-1-1.733-1-2.8.533-6.133 1-14.467 1.4-25V78.4c0-16.8-.867-30.467-2.6-41l21.4 9h18.8c1.2-12 1.933-20.6 2.2-25.8H38V64c0 15.867-.733 30.533-2.2 44-1.333 13.333-4.6 26.867-9.8 40.6-5.067 13.6-12.733 25.6-23 36l-2.4-1.8c8.133-15.867 13.467-33.467 16-52.8 2.533-19.333 3.8-41.333 3.8-66V34.8c0-12-.6-22.067-1.8-30.2L41 14.8h105.8l5.2-7.2c.533-.8 1.333-1.867 2.4-3.2 1.067-1.467 1.933-2.533 2.6-3.2.667-.667 1.267-1 1.8-1Zm-19.6 74.6V52.2H73.4v22.6h65.8Zm-65.8 29.8h65.8v-24H73.4v24ZM128 127c10.8 2.8 19.667 6.333 26.6 10.6 6.933 4.267 11.933 8.733 15 13.4 3.2 4.667 4.8 9 4.8 13 0 3.067-.8 5.533-2.4 7.4-1.6 2-3.733 3-6.4 3-2.267 0-4.6-.733-7-2.2-2.4-6.933-6.667-14.4-12.8-22.4-6.133-8-12.6-15.067-19.4-21.2l1.6-1.6Z" fill="#000"/></svg>