<svg width="185" height="188" fill="none" xmlns="http://www.w3.org/2000/svg"><path d="M164.4 94.6c.533-.8 1.133-1.8 1.8-3 .8-1.2 1.467-2.067 2-2.6.533-.667 1.067-1 1.6-1 .8 0 2.4 1.133 4.8 3.4a67.597 67.597 0 0 1 6.8 7c2.133 2.533 3.2 4.267 3.2 5.2-.133 2.133-1.733 3.2-4.8 3.2h-20.2c-1.067 16.267-2.333 29.2-3.8 38.8h1.6l4.2-7.2c.533-.933 1.2-2.067 2-3.4.933-1.333 1.667-2.333 2.2-3 .533-.667 1.067-1 1.6-1 .8 0 2.533 1.267 5.2 3.8 2.667 2.4 5.133 5 7.4 7.8 2.4 2.8 3.6 4.667 3.6 5.6-.4 2.133-2.067 3.2-5 3.2h-23.4c-2.667 14.267-5.933 23.533-9.8 27.8-2.933 3.067-6.4 5.267-10.4 6.6-3.867 1.333-8.4 2-13.6 2 0-5.2-1.2-9-3.6-11.4-2.667-2.533-8.667-4.733-18-6.6l.2-3.2c13.333 1.333 21.667 2 25 2 1.733 0 3.133-.2 4.2-.6 1.067-.4 2.067-1.067 3-2 2.4-2.4 4.267-7.267 5.6-14.6h-63l-1.8 9.8-.8 5c-2.8 1.6-5.533 2.4-8.2 2.4-2.267 0-5.533-.533-9.8-1.6 3.733-18.4 7.267-38.467 10.6-60.2h-7c-3.733.133-7.6 1.067-11.6 2.8L41 99.4c4.667.8 10.267 1.333 16.8 1.6h8c1.733-11.333 3.733-25.6 6-42.8-6.933 7.733-13.933 13.933-21 18.6L48.6 75c6.667-8.8 12.8-19.467 18.4-32 2.667-6 5.133-13.133 7.4-21.4 2.267-8.4 3.6-15.4 4-21 17.2 6.133 25.8 10.067 25.8 11.8 0 .4-.6.867-1.8 1.4L98.6 15c-2.667 6.4-5.533 12.267-8.6 17.6h59.6l4.8-7.2c.533-.8 1.267-1.867 2.2-3.2.933-1.333 1.667-2.333 2.2-3 .667-.667 1.267-1 1.8-1 .8 0 2.667 1.267 5.6 3.8 3.067 2.4 5.867 5 8.4 7.8 2.667 2.667 4 4.467 4 5.4-.4 2.133-2.133 3.2-5.2 3.2H86.6c-2.4 4.133-5.467 8.533-9.2 13.2l14.8 7h50.4l4.2-5.2a40.63 40.63 0 0 0 2-2.2c.933-1.067 1.667-1.8 2.2-2.2.533-.533 1.067-.8 1.6-.8.8 0 2.533 1.133 5.2 3.4 2.8 2.133 5.4 4.467 7.8 7 2.4 2.533 3.6 4.267 3.6 5.2-1.467 1.733-4.2 2.867-8.2 3.4l-.4 10.2c-.267 10.533-.533 18.4-.8 23.6h.6l4-6.4ZM16.6 4.2c10.933 1.867 19 5 24.2 9.4 5.2 4.4 7.8 8.933 7.8 13.6 0 2.667-.867 4.933-2.6 6.8-1.6 1.867-3.667 2.8-6.2 2.8-2.133 0-4.4-.8-6.8-2.4-1.067-4.667-3.333-9.6-6.8-14.8-3.467-5.2-7.2-9.867-11.2-14l1.6-1.4ZM11.8 129c1.333 0 2.267-.2 2.8-.6.533-.4 1.267-1.533 2.2-3.4 1.867-3.733 5.267-11.533 10.2-23.4 5.067-11.867 13.933-33.267 26.6-64.2l3.4 1c-4.4 14.267-9.2 30.067-14.4 47.4-5.067 17.2-8.2 28.2-9.4 33-1.867 6.8-2.8 12.867-2.8 18.2 0 2.4.333 4.933 1 7.6.8 2.533 1.267 4.067 1.4 4.6a85.96 85.96 0 0 1 2.8 11.2c.667 3.6.933 7.667.8 12.2-.133 4.667-1.4 8.333-3.8 11-2.267 2.8-5.333 4.2-9.2 4.2-2.133 0-3.933-.867-5.4-2.6-1.333-1.6-2.267-4.067-2.8-7.4 1.2-8.267 1.8-15.667 1.8-22.2 0-5.2-.4-9.467-1.2-12.8-.667-3.467-1.667-5.667-3-6.6-2-1.733-5.133-2.8-9.4-3.2v-4h8.4ZM2.4 50.2c10.533 1.6 18.267 4.533 23.2 8.8 5.067 4.133 7.6 8.533 7.6 13.2 0 2.667-.867 4.933-2.6 6.8-1.6 1.733-3.667 2.6-6.2 2.6-2.4 0-4.667-.8-6.8-2.4-.8-4.533-2.867-9.4-6.2-14.6C8.2 59.4 4.667 55.133.8 51.8l1.6-1.6Zm102 50.8c1.733-14.533 3-26.733 3.8-36.6h-20c-.267 2.4-1.467 11.067-3.6 26L83 101h21.4Zm38.6 0c.8-13.733 1.333-25.933 1.6-36.6H124l-1 10.8a807.367 807.367 0 0 1-2.4 25.8H143Zm-44.4 44.6c2.267-15.6 4-28.533 5.2-38.8H82.2l-2.8 16.6-3.6 22.2h22.8Zm21.4-38.8-1.6 13.6c-1.467 14.4-2.4 22.8-2.8 25.2h23.2c1.333-7.6 2.6-20.533 3.8-38.8H120Z" fill="#000"/></svg>