<svg width="181" height="187" fill="none" xmlns="http://www.w3.org/2000/svg"><path d="M155 15.4c.533-.8 1.267-1.867 2.2-3.2.933-1.333 1.667-2.333 2.2-3 .667-.667 1.267-1 1.8-1 .8 0 2.733 1.267 5.8 3.8 3.2 2.4 6.133 5 8.8 7.8 2.8 2.667 4.2 4.467 4.2 5.4-.4 2.133-2.067 3.2-5 3.2h-50V38c0 .8-1.6 1.667-4.8 2.6-3.2.933-6.467 1.4-9.8 1.4-2.667 0-4-1.333-4-4 0-.267.267-1.933.8-5v-4.6h-36v4.8c.4 5.067.667 7.867.8 8.4-.4 1.2-2.2 2.4-5.4 3.6-3.2 1.2-6.4 1.8-9.6 1.8-2.667 0-4-1.333-4-4l.8-8.4v-6.2H35.2c-9.467.133-19.467 1.067-30 2.8L.2 21c7.333.8 16.2 1.333 26.6 1.6h27c0-9.067-.467-16.467-1.4-22.2C61.333 2.533 67.533 4.333 71 5.8c3.467 1.333 5.2 2.467 5.2 3.4 0 .533-.533 1.133-1.6 1.8l-3.4 2v9.6h36c0-8.933-.467-16.267-1.4-22 9.2 2.267 15.533 4.067 19 5.4 3.467 1.333 5.2 2.467 5.2 3.4 0 .533-.533 1.133-1.6 1.8l-3.4 2v9.4h25.2l4.8-7.2Zm6 39c-.933.933-2.267 1.4-4 1.4-2.133 0-4.467-.6-7-1.8-16.4 2.8-35.333 5.067-56.8 6.8-21.467 1.733-42.6 2.6-63.4 2.6l-14-.2-.4-3.6c22-1.6 45.267-4.467 69.8-8.6 24.667-4.267 44.4-8.733 59.2-13.4l8.2 8.4 8.4 8.4Zm-13 11.8c6.533 2.667 9.8 4.733 9.8 6.2 0 .667-.8 1.2-2.4 1.6l-4 .8C146.067 81.6 140 88 133.2 94c-6.667 6-13.333 11.067-20 15.2L111 107c1.867-2.4 4-5.467 6.4-9.2 3.467-5.6 6.867-12.2 10.2-19.8 3.333-7.733 5.667-14.267 7-19.6l13.4 7.8Zm-74.4-2.4c8.667 2.533 15 5.867 19 10 4.133 4 6.2 8.133 6.2 12.4 0 2.933-.867 5.4-2.6 7.4s-3.867 3-6.4 3c-2.667 0-5.133-1.067-7.4-3.2-.267-4.533-1.467-9.4-3.6-14.6-2.133-5.333-4.533-9.933-7.2-13.8l2-1.2Zm-45 5.4c9.867 3.067 17.067 7 21.6 11.8 4.667 4.8 7 9.6 7 14.4 0 3.067-.867 5.667-2.6 7.8-1.733 2-3.867 3-6.4 3-2.533 0-5.067-1.067-7.6-3.2-.267-5.333-1.8-11-4.6-17-2.667-6-5.8-11.2-9.4-15.6l2-1.2Zm123.8 40c.667-.933 1.4-1.933 2.2-3 .8-1.2 1.6-2.2 2.4-3 .8-.933 1.467-1.4 2-1.4.8 0 2.8 1.267 6 3.8a89.97 89.97 0 0 1 9.2 8c2.933 2.8 4.4 4.667 4.4 5.6-.533 2.133-2.333 3.2-5.4 3.2h-67c8.267 8.667 19.2 16.2 32.8 22.6 13.733 6.4 27.733 11 42 13.8l-.2 2.2c-3.733.933-6.933 2.933-9.6 6-2.533 3.067-4.333 7-5.4 11.8-14.133-5.333-26.733-12.733-37.8-22.2-11.067-9.6-20-21-26.8-34.2h-2v19.8c.4 16.667.867 29.533 1.4 38.6-.667 1.467-2.667 2.867-6 4.2-3.333 1.333-6.733 2-10.2 2-1.6 0-2.8-.4-3.6-1.2-.8-.8-1.2-1.733-1.2-2.8.533-7.467 1-17.6 1.4-30.4v-17.2c-9.2 10.133-20.467 19.133-33.8 27-13.2 7.867-28 14.467-44.4 19.8l-1.4-3c13.6-6.667 26-15 37.2-25 11.333-10 20.6-20.6 27.8-31.8H37.6c-9.467.133-19.467 1.067-30 2.8L2.4 115c7.333.8 16.2 1.333 26.6 1.6h52c0-7.6-.4-14.2-1.2-19.8 9.2 2.267 15.533 4.067 19 5.4 3.6 1.2 5.4 2.267 5.4 3.2 0 .533-.533 1.133-1.6 1.8l-3.4 2v7.4h48l5.2-7.4Z" fill="#000"/></svg>